PathFileType	4	(X/Y/Z)	/Users/itak/Documents/Research/Walk-IL/dataset/trc/00415_00012.trc
DataRate	CameraRate	NumFrames	NumMarkers	Units	OrigDataRate	OrigDataStartFrame	OrigNumFrames
100.000000	100.000000	4	53	mm	100.000000	693	924
Frame#	Time	RPSI			LPSI			L3			STRN			T10			C7			CLAV			RBAK			LBAK			LSHO			LUPA			LAEL			LAOL			LWTS			LWPS			LFRA			LIFD			LHPS			LHTS			RSHO			RUPA			RAEL			RAOL			RWTS			RWPS			RFRA			RIFD			RHTS			RHPS			RBHD			LFHD			RFHD			LBHD			LHIP			RHIP			RASI			LASI			LKNE			LTHI			LANK			LTIP			LTOE			LMT1			LMT5			LHEE			RKNE			RTHI			RANK			RTIP			RTOE			RMT1			RMT5			RHEE			
		X1	Y1	Z1	X2	Y2	Z2	X3	Y3	Z3	X4	Y4	Z4	X5	Y5	Z5	X6	Y6	Z6	X7	Y7	Z7	X8	Y8	Z8	X9	Y9	Z9	X10	Y10	Z10	X11	Y11	Z11	X12	Y12	Z12	X13	Y13	Z13	X14	Y14	Z14	X15	Y15	Z15	X16	Y16	Z16	X17	Y17	Z17	X18	Y18	Z18	X19	Y19	Z19	X20	Y20	Z20	X21	Y21	Z21	X22	Y22	Z22	X23	Y23	Z23	X24	Y24	Z24	X25	Y25	Z25	X26	Y26	Z26	X27	Y27	Z27	X28	Y28	Z28	X29	Y29	Z29	X30	Y30	Z30	X31	Y31	Z31	X32	Y32	Z32	X33	Y33	Z33	X34	Y34	Z34	X35	Y35	Z35	X36	Y36	Z36	X37	Y37	Z37	X38	Y38	Z38	X39	Y39	Z39	X40	Y40	Z40	X41	Y41	Z41	X42	Y42	Z42	X43	Y43	Z43	X44	Y44	Z44	X45	Y45	Z45	X46	Y46	Z46	X47	Y47	Z47	X48	Y48	Z48	X49	Y49	Z49	X50	Y50	Z50	X51	Y51	Z51	X52	Y52	Z52	X53	Y53	Z53	

694	6.93	282.4876403808594	973.227783203125	358.936279296875	406.0340881347656	966.0411376953125	400.011962890625	347.590087890625	1053.483276367188	380.84130859375	275.5444641113281	1209.087768554688	615.9620971679688	365.4163208007812	1155.01318359375	378.6974487304688	369.5597229003906	1403.20068359375	425.5808715820312	302.32177734375	1325.743041992188	565.6532592773438	317.6887817382812	1261.463623046875	354.54052734375	468.7210388183594	1362.516845703125	452.3322143554688	481.1887512207031	1376.633422851562	552.4376831054688	552.2444458007812	1258.826171875	560.5603637695312	556.6309204101562	1059.182373046875	584.80322265625	527.0582885742188	1041.516967773438	506.48486328125	472.335205078125	843.0159912109375	639.5608520507812	549.44970703125	828.7511596679688	617.0243530273438	554.2514038085938	954.1487426757812	598.9811401367188	476.3700256347656	662.3195190429688	630.5923461914062	535.6439819335938	743.6296997070312	621.9104614257812	482.3392639160156	744.6085815429688	656.0093383789062	200.8790283203125	1388.484741210938	417.7549743652344	148.2205963134766	1325.626220703125	383.3601684570312	90.74313354492188	1065.958618164062	389.4639282226562	184.7884063720703	1051.390991210938	388.2421264648438	70.07347106933594	861.093994140625	536.3085327148438	24.32684135437012	846.4080200195312	477.9822082519531	65.25440216064453	1003.095886230469	413.618896484375	45.02646636962891	688.0111694335938	553.8938598632812	37.39391326904297	760.4932861328125	556.5928955078125	16.74595642089844	761.1060180664062	490.9381103515625	229.4777221679688	1572.537353515625	460.9341125488281	368.3050537109375	1610.413696289062	595.6334838867188	247.7949981689453	1593.446533203125	591.6908569335938	387.0881958007812	1591.865112304688	449.2257385253906	484.3411560058594	953.3781127929688	519.4732666015625	145.7839202880859	964.9122314453125	402.113525390625	160.5337982177734	979.2264404296875	545.1080932617188	411.9500732421875	954.970458984375	618.0789184570312	461.66552734375	468.3291931152344	527.3818359375	467.1307373046875	611.2145385742188	534.7801513671875	440.1149597167969	40.24945449829102	395.9303894042969	465.3287353515625	240.023193359375	461.2681579589844	374.1227111816406	38.38606643676758	610.4526977539062	343.5376281738281	39.25744247436523	527.9058227539062	450.0169677734375	37.43464279174805	522.3583374023438	384.8486022949219	36.5803337097168	355.1791076660156	46.38310623168945	503.7361755371094	540.8175048828125	92.24630737304688	754.1983032226562	507.1195983886719	91.3369140625	70.52454376220703	459.7765197753906	48.503173828125	376.1402587890625	531.8816528320312	77.33439636230469	78.36653137207031	645.77490234375	135.6767272949219	86.79679870605469	591.0895385742188	56.98073196411133	48.73664093017578	538.2142944335938	173.8814544677734	71.40493011474609	420.561767578125	
695	6.94	281.8506774902344	973.331787109375	359.0436706542969	404.9884643554688	966.0397338867188	401.5322875976562	347.04833984375	1053.111450195312	381.4583435058594	272.515625	1208.920288085938	615.5089721679688	364.6523742675781	1154.831909179688	379.4388427734375	368.5216674804688	1402.944458007812	426.2938842773438	299.6559448242188	1325.675659179688	565.5159912109375	317.287353515625	1261.27197265625	354.8779296875	467.3691711425781	1362.193237304688	454.0335998535156	478.9481201171875	1376.283447265625	554.1729736328125	549.7413330078125	1258.407592773438	563.2183837890625	553.6469116210938	1058.828125	588.0941772460938	524.7266235351562	1040.988159179688	509.5511474609375	468.5461730957031	842.9158325195312	642.6419677734375	545.8095092773438	828.518310546875	620.7993774414062	550.9049682617188	953.84228515625	602.5091552734375	472.6466064453125	662.1691284179688	634.2422485351562	531.9369506835938	743.4359130859375	625.8335571289062	478.3045043945312	744.52197265625	659.4471435546875	199.9652099609375	1388.471435546875	416.8610534667969	147.5313720703125	1325.651245117188	382.0596313476562	89.71047973632812	1066.046020507812	387.6301879882812	183.6392974853516	1051.73681640625	387.4388122558594	66.59535980224609	860.2870483398438	532.7560424804688	21.68349647521973	846.2140502929688	473.5284729003906	63.82580184936523	1003.356567382812	411.1524353027344	40.76249694824219	687.1526489257812	548.5779418945312	33.30159759521484	759.6470336914062	551.6913452148438	13.67371368408203	760.8646240234375	485.7060852050781	228.1344757080078	1572.154541015625	459.7029418945312	364.5318298339844	1610.326049804688	596.749267578125	244.2183532714844	1592.9296875	590.7939453125	385.8125915527344	1592.088745117188	450.6614379882812	481.9439697265625	953.263427734375	521.7608032226562	144.7490844726562	965.12939453125	400.7032165527344	157.9575042724609	979.2108154296875	543.864501953125	408.4735412597656	954.7384643554688	619.6340942382812	459.5757751464844	468.282470703125	528.9622192382812	464.7373352050781	611.1362915039062	536.5740966796875	440.0821838378906	40.39554595947266	395.9944763183594	464.341552734375	240.1695861816406	462.16796875	374.0672607421875	38.35357666015625	610.4729614257812	343.2057189941406	39.01655960083008	527.8072509765625	449.8838806152344	37.52730178833008	522.3800048828125	384.7837829589844	36.61077880859375	355.1741333007812	41.80562210083008	504.563720703125	535.7153930664062	90.49449920654297	754.2633056640625	504.9162292480469	82.83197021484375	70.25753784179688	460.1554565429688	42.30035018920898	377.0896606445312	527.41162109375	61.21941375732422	79.6405029296875	645.6773681640625	122.0669860839844	86.50645446777344	593.2926025390625	44.59686279296875	49.9358024597168	537.3209228515625	167.0303955078125	69.01016998291016	424.2808532714844	
696	6.95	281.1116943359375	973.4212646484375	359.1801147460938	403.8410339355469	966.034423828125	403.0166320800781	346.3917846679688	1052.676635742188	382.0595092773438	269.4416809082031	1208.71875	615.1112670898438	363.7120361328125	1154.635498046875	380.1762390136719	367.3027038574219	1402.668212890625	427.0091857910156	296.86767578125	1325.58447265625	565.4339599609375	316.6775817871094	1261.051147460938	355.2367858886719	465.8376770019531	1361.855590820312	455.6854858398438	476.573974609375	1375.925170898438	555.85009765625	547.0899658203125	1257.972045898438	565.7894897460938	550.4940795898438	1058.458862304688	591.3793334960938	522.2178344726562	1040.429809570312	512.6224975585938	464.5265197753906	842.8571166992188	645.808349609375	541.925537109375	828.2931518554688	624.6561889648438	547.3317260742188	953.5281982421875	606.0656127929688	468.6187438964844	662.042724609375	638.0414428710938	527.9572143554688	743.2575073242188	629.876220703125	474.0102844238281	744.4735717773438	662.9949951171875	198.8635711669922	1388.41943359375	416.0485534667969	146.6532135009766	1325.631469726562	380.859375	88.50220489501953	1066.097900390625	385.9233703613281	182.260498046875	1052.044189453125	386.717529296875	63.09562683105469	859.4290161132812	529.28662109375	18.9591121673584	846.0147094726562	469.2359313964844	62.23649978637695	1003.594177246094	408.828125	36.5587043762207	686.2363891601562	543.1740112304688	29.27199745178223	758.727783203125	546.835205078125	10.53265953063965	760.61083984375	480.5407104492188	226.6841430664062	1571.730590820312	458.3961486816406	360.5635375976562	1610.244384765625	597.7811279296875	240.4903106689453	1592.44677734375	589.776611328125	384.3883361816406	1592.253784179688	452.057861328125	479.4464721679688	953.1427612304688	524.0279541015625	143.6379089355469	965.3067626953125	399.3030700683594	155.3046417236328	979.1251220703125	542.621337890625	404.9356994628906	954.5142822265625	621.23095703125	457.455322265625	468.2171325683594	530.5774536132812	462.2882080078125	611.048828125	538.37939453125	440.0629272460938	40.53962707519531	396.0583190917969	463.3476257324219	240.310302734375	463.0935363769531	374.0227661132812	38.32805633544922	610.4929809570312	342.8067321777344	38.73805618286133	527.6904296875	449.7606201171875	37.61244201660156	522.405029296875	384.7359313964844	36.63948440551758	355.1671142578125	37.32856750488281	505.2354125976562	530.615234375	88.64479064941406	754.2976684570312	502.7233581542969	74.09523773193359	69.83297729492188	460.7550048828125	36.25774383544922	377.8588256835938	523.1834106445312	45.92142105102539	80.97058868408203	645.6199951171875	108.8333282470703	86.32143402099609	595.304931640625	32.54642486572266	51.01120758056641	536.7161865234375	159.6027526855469	66.58181762695312	427.8983459472656	
697	6.96	280.2784118652344	973.4840087890625	359.3364562988281	402.5927429199219	966.0086059570312	404.4625854492188	345.6224975585938	1052.179565429688	382.6422729492188	266.3041381835938	1208.473266601562	614.7587890625	362.6021728515625	1154.421630859375	380.8976135253906	365.90234375	1402.373779296875	427.7317504882812	293.9530639648438	1325.45751953125	565.4036865234375	315.8600158691406	1260.802001953125	355.6119995117188	464.1313171386719	1361.504150390625	457.2950439453125	474.0581970214844	1375.555419921875	557.4850463867188	544.279296875	1257.51611328125	568.2809448242188	547.1546630859375	1058.072509765625	594.651611328125	519.528076171875	1039.839721679688	515.6901245117188	460.2584533691406	842.8309936523438	649.0567016601562	537.7857666015625	828.0687255859375	628.587646484375	543.5294189453125	953.20654296875	609.6463623046875	464.275146484375	661.93310546875	641.972412109375	523.69775390625	743.0927124023438	634.0282592773438	469.4492797851562	744.4638061523438	666.6397705078125	197.5703277587891	1388.326293945312	415.3129272460938	145.5812835693359	1325.566528320312	379.7503356933594	87.11746215820312	1066.11328125	384.3192138671875	180.6647033691406	1052.287353515625	386.0456848144531	59.58458709716797	858.5394897460938	525.9025268554688	16.18140983581543	845.8031616210938	465.1193237304688	60.48865509033203	1003.792175292969	406.6263122558594	32.45659255981445	685.2783813476562	537.7417602539062	25.32423782348633	757.7520751953125	542.0574340820312	7.348751068115234	760.34228515625	475.4722900390625	225.1212463378906	1571.265747070312	457.0275268554688	356.4178466796875	1610.163940429688	598.7198486328125	236.6188354492188	1591.996337890625	588.6458740234375	382.8080749511719	1592.348999023438	453.4060363769531	476.8504333496094	953.0103149414062	526.279052734375	142.4534759521484	965.4334106445312	397.9006652832031	152.5696105957031	978.9681396484375	541.3685302734375	401.3267211914062	954.3095703125	622.8811645507812	455.3155517578125	468.1346130371094	532.2303466796875	459.7848510742188	610.9500732421875	540.2003173828125	440.0600280761719	40.69026947021484	396.1226806640625	462.350341796875	240.4441375732422	464.0444641113281	373.9881591796875	38.30845642089844	610.5116577148438	342.3709716796875	38.43451309204102	527.57421875	449.64501953125	37.68832015991211	522.4359130859375	384.7164611816406	36.67251586914062	355.161376953125	32.93646240234375	505.75390625	525.607421875	86.70470428466797	754.2885131835938	500.5271606445312	65.14276123046875	69.30091857910156	461.5369262695312	30.34556579589844	378.4665222167969	519.256103515625	31.52765655517578	82.31106567382812	645.6533203125	96.07258605957031	86.21408081054688	597.1343383789062	20.84959602355957	51.98015975952148	536.4017944335938	151.6469879150391	64.185302734375	431.3258972167969	
